# xmcd
#
# Track frame offsets: 
#        150
#        20799
#        41442
#        63536
#        84154
#        100355
#        120230
#        136355
#        152634
#        171254
#        188475
#        204787
#        225690
#        244306
#        262802
#        280513
#
# Disc length: 3973 seconds
#
# Revision: 0
# Processed by: cddbd v1.5.2PL0 Copyright (c) Steve Scherf et al.
# Submitted via: ExactAudioCopy v1.0b1
#
DISCID=c90f8310
DTITLE=郭冬玲 - 说好的一辈子
DYEAR=2011
DGENRE=Pop
TTITLE0=说好的一辈子
TTITLE1=你身边的人曾经是我
TTITLE2=既然你有了她在身边
TTITLE3=喝着烈酒唱情歌
TTITLE4=宅女的爱
TTITLE5=你的无情伤了我的心
TTITLE6=我爱的男人
TTITLE7=多想有你在身边
TTITLE8=输的是我赢的是你
TTITLE9=一路的歌唱
TTITLE10=男欢女爱
TTITLE11=幸福的女人
TTITLE12=我对爱情死了心
TTITLE13=我无路可退
TTITLE14=爱情黑客
TTITLE15=为爱守候
EXTD=
EXTT0=
EXTT1=
EXTT2=
EXTT3=
EXTT4=
EXTT5=
EXTT6=
EXTT7=
EXTT8=
EXTT9=
EXTT10=
EXTT11=
EXTT12=
EXTT13=
EXTT14=
EXTT15=
PLAYORDER=
